<svg width="132" height="56" viewBox="0 0 132 56" fill="none" xmlns="http://www.w3.org/2000/svg">
  <path d="M0 8.00171C0 3.58343 3.58172 0.00170898 8 0.00170898H124C128.418 0.00170898 132 3.58343 132 8.00171V48.0017C132 52.42 128.418 56.0017 124 56.0017H8C3.58172 56.0017 0 52.42 0 48.0017V8.00171Z" fill="#ffffff"/>
  <path d="M58.45 16.8367V23.2417H59.62V25.4567C59.62 25.5434 59.5917 25.6134 59.535 25.6667C59.4783 25.72 59.4033 25.7467 59.31 25.7467H58.735V24.0017H52.96V25.4567C52.96 25.5434 52.93 25.6134 52.87 25.6667C52.8133 25.72 52.74 25.7467 52.65 25.7467H52.07V23.2417H52.8C52.9033 23.1917 53.0067 23.1117 53.11 23.0017C53.2133 22.8884 53.3117 22.7284 53.405 22.5217C53.5017 22.3117 53.5917 22.0484 53.675 21.7317C53.7583 21.415 53.8333 21.0284 53.9 20.5717C53.97 20.1117 54.03 19.575 54.08 18.9617C54.13 18.3484 54.1683 17.64 54.195 16.8367H58.45ZM55.105 17.6017C55.065 18.4217 55.0067 19.14 54.93 19.7567C54.8567 20.3734 54.77 20.9084 54.67 21.3617C54.57 21.8117 54.4583 22.19 54.335 22.4967C54.2117 22.8 54.08 23.0484 53.94 23.2417H57.475V17.6017H55.105ZM62.3986 18.8567C62.7686 18.8567 63.1019 18.9184 63.3986 19.0417C63.6953 19.165 63.9486 19.34 64.1586 19.5667C64.3686 19.7934 64.5286 20.0684 64.6386 20.3917C64.7519 20.7117 64.8086 21.07 64.8086 21.4667C64.8086 21.8667 64.7519 22.2267 64.6386 22.5467C64.5286 22.8667 64.3686 23.14 64.1586 23.3667C63.9486 23.5934 63.6953 23.7684 63.3986 23.8917C63.1019 24.0117 62.7686 24.0717 62.3986 24.0717C62.0253 24.0717 61.6886 24.0117 61.3886 23.8917C61.0919 23.7684 60.8386 23.5934 60.6286 23.3667C60.4186 23.14 60.2569 22.8667 60.1436 22.5467C60.0336 22.2267 59.9786 21.8667 59.9786 21.4667C59.9786 21.07 60.0336 20.7117 60.1436 20.3917C60.2569 20.0684 60.4186 19.7934 60.6286 19.5667C60.8386 19.34 61.0919 19.165 61.3886 19.0417C61.6886 18.9184 62.0253 18.8567 62.3986 18.8567ZM62.3986 23.3767C62.8986 23.3767 63.2719 23.21 63.5186 22.8767C63.7653 22.54 63.8886 22.0717 63.8886 21.4717C63.8886 20.8684 63.7653 20.3984 63.5186 20.0617C63.2719 19.725 62.8986 19.5567 62.3986 19.5567C62.1453 19.5567 61.9236 19.6 61.7336 19.6867C61.5469 19.7734 61.3903 19.8984 61.2636 20.0617C61.1403 20.225 61.0469 20.4267 60.9836 20.6667C60.9236 20.9034 60.8936 21.1717 60.8936 21.4717C60.8936 22.0717 61.0169 22.54 61.2636 22.8767C61.5136 23.21 61.8919 23.3767 62.3986 23.3767ZM69.4624 19.8367C69.4358 19.8734 69.4091 19.9017 69.3824 19.9217C69.3558 19.9417 69.3191 19.9517 69.2724 19.9517C69.2224 19.9517 69.1674 19.9317 69.1074 19.8917C69.0474 19.8484 68.9724 19.8017 68.8824 19.7517C68.7958 19.7017 68.6874 19.6567 68.5574 19.6167C68.4308 19.5734 68.2741 19.5517 68.0874 19.5517C67.8374 19.5517 67.6174 19.5967 67.4274 19.6867C67.2374 19.7734 67.0774 19.9 66.9474 20.0667C66.8208 20.2334 66.7241 20.435 66.6574 20.6717C66.5941 20.9084 66.5624 21.1734 66.5624 21.4667C66.5624 21.7734 66.5974 22.0467 66.6674 22.2867C66.7374 22.5234 66.8358 22.7234 66.9624 22.8867C67.0924 23.0467 67.2474 23.17 67.4274 23.2567C67.6108 23.34 67.8158 23.3817 68.0424 23.3817C68.2591 23.3817 68.4374 23.3567 68.5774 23.3067C68.7174 23.2534 68.8324 23.195 68.9224 23.1317C69.0158 23.0684 69.0924 23.0117 69.1524 22.9617C69.2158 22.9084 69.2774 22.8817 69.3374 22.8817C69.4108 22.8817 69.4674 22.91 69.5074 22.9667L69.7574 23.2917C69.6474 23.4284 69.5224 23.545 69.3824 23.6417C69.2424 23.7384 69.0908 23.82 68.9274 23.8867C68.7674 23.95 68.5991 23.9967 68.4224 24.0267C68.2458 24.0567 68.0658 24.0717 67.8824 24.0717C67.5658 24.0717 67.2708 24.0134 66.9974 23.8967C66.7274 23.78 66.4924 23.6117 66.2924 23.3917C66.0924 23.1684 65.9358 22.895 65.8224 22.5717C65.7091 22.2484 65.6524 21.88 65.6524 21.4667C65.6524 21.09 65.7041 20.7417 65.8074 20.4217C65.9141 20.1017 66.0674 19.8267 66.2674 19.5967C66.4708 19.3634 66.7191 19.1817 67.0124 19.0517C67.3091 18.9217 67.6491 18.8567 68.0324 18.8567C68.3891 18.8567 68.7024 18.915 68.9724 19.0317C69.2458 19.145 69.4874 19.3067 69.6974 19.5167L69.4624 19.8367ZM70.1428 18.9367H74.9228V19.6167H72.9778V24.0017H72.0878V19.6167H70.1428V18.9367ZM77.3164 25.4967C77.2864 25.5634 77.2481 25.6167 77.2014 25.6567C77.1581 25.6967 77.0897 25.7167 76.9964 25.7167H76.3364L77.2614 23.7067L75.1714 18.9367H75.9414C76.0181 18.9367 76.0781 18.9567 76.1214 18.9967C76.1681 19.0334 76.1997 19.075 76.2164 19.1217L77.5714 22.3117C77.5981 22.3884 77.6231 22.4634 77.6464 22.5367C77.6697 22.6067 77.6897 22.68 77.7064 22.7567C77.7497 22.6067 77.7997 22.4567 77.8564 22.3067L79.1714 19.1217C79.1914 19.0684 79.2247 19.025 79.2714 18.9917C79.3214 18.955 79.3764 18.9367 79.4364 18.9367H80.1414L77.3164 25.4967ZM85.1477 18.9367V24.0017H84.2527V19.6167H81.8227V24.0017H80.9277V18.9367H85.1477ZM90.7824 18.9367V24.0017H89.8874V21.6317H87.4574V24.0017H86.5624V18.9367H87.4574V20.9567H89.8874V18.9367H90.7824ZM94.3322 18.8567C94.7022 18.8567 95.0355 18.9184 95.3322 19.0417C95.6289 19.165 95.8822 19.34 96.0922 19.5667C96.3022 19.7934 96.4622 20.0684 96.5722 20.3917C96.6855 20.7117 96.7422 21.07 96.7422 21.4667C96.7422 21.8667 96.6855 22.2267 96.5722 22.5467C96.4622 22.8667 96.3022 23.14 96.0922 23.3667C95.8822 23.5934 95.6289 23.7684 95.3322 23.8917C95.0355 24.0117 94.7022 24.0717 94.3322 24.0717C93.9589 24.0717 93.6222 24.0117 93.3222 23.8917C93.0255 23.7684 92.7722 23.5934 92.5622 23.3667C92.3522 23.14 92.1905 22.8667 92.0772 22.5467C91.9672 22.2267 91.9122 21.8667 91.9122 21.4667C91.9122 21.07 91.9672 20.7117 92.0772 20.3917C92.1905 20.0684 92.3522 19.7934 92.5622 19.5667C92.7722 19.34 93.0255 19.165 93.3222 19.0417C93.6222 18.9184 93.9589 18.8567 94.3322 18.8567ZM94.3322 23.3767C94.8322 23.3767 95.2055 23.21 95.4522 22.8767C95.6989 22.54 95.8222 22.0717 95.8222 21.4717C95.8222 20.8684 95.6989 20.3984 95.4522 20.0617C95.2055 19.725 94.8322 19.5567 94.3322 19.5567C94.0789 19.5567 93.8572 19.6 93.6672 19.6867C93.4805 19.7734 93.3239 19.8984 93.1972 20.0617C93.0739 20.225 92.9805 20.4267 92.9172 20.6667C92.8572 20.9034 92.8272 21.1717 92.8272 21.4717C92.8272 22.0717 92.9505 22.54 93.1972 22.8767C93.4472 23.21 93.8255 23.3767 94.3322 23.3767ZM100.43 18.9367H102.285C102.598 18.9367 102.866 18.9684 103.09 19.0317C103.313 19.095 103.496 19.1817 103.64 19.2917C103.783 19.3984 103.888 19.525 103.955 19.6717C104.021 19.8184 104.055 19.975 104.055 20.1417C104.055 20.2517 104.04 20.3667 104.01 20.4867C103.98 20.6067 103.926 20.7217 103.85 20.8317C103.776 20.9417 103.675 21.0417 103.545 21.1317C103.418 21.2184 103.258 21.2867 103.065 21.3367C103.448 21.4034 103.745 21.5384 103.955 21.7417C104.168 21.9417 104.275 22.2067 104.275 22.5367C104.275 22.7834 104.225 22.9984 104.125 23.1817C104.028 23.3617 103.893 23.5134 103.72 23.6367C103.55 23.76 103.35 23.8517 103.12 23.9117C102.89 23.9717 102.643 24.0017 102.38 24.0017H100.43V18.9367ZM101.285 21.6917V23.3767H102.375C102.708 23.3767 102.971 23.3 103.165 23.1467C103.358 22.99 103.455 22.7767 103.455 22.5067C103.455 22.3867 103.436 22.2784 103.4 22.1817C103.363 22.0817 103.303 21.995 103.22 21.9217C103.136 21.8484 103.025 21.7917 102.885 21.7517C102.748 21.7117 102.58 21.6917 102.38 21.6917H101.285ZM101.285 21.1267H102.26C102.406 21.1267 102.541 21.1067 102.665 21.0667C102.791 21.0234 102.9 20.965 102.99 20.8917C103.08 20.815 103.15 20.725 103.2 20.6217C103.25 20.515 103.275 20.3984 103.275 20.2717C103.275 20.1784 103.258 20.0884 103.225 20.0017C103.191 19.9117 103.135 19.8334 103.055 19.7667C102.975 19.6967 102.87 19.6417 102.74 19.6017C102.61 19.5584 102.45 19.5367 102.26 19.5367H101.285V21.1267Z" fill="#0B1F33"/>
  <path d="M70.9384 33.3316C70.3532 33.333 69.7815 33.5112 69.2957 33.8437C68.8099 34.1761 68.4317 34.6479 68.2091 35.1994C67.9864 35.7508 67.9292 36.3572 68.0448 36.9418C68.1602 37.5263 68.4433 38.0629 68.858 38.4835C69.2728 38.9042 69.8007 39.1901 70.3749 39.305C70.9491 39.42 71.5439 39.3589 72.084 39.1294C72.6241 38.8999 73.0853 38.5123 73.4093 38.0158C73.7332 37.5192 73.9054 36.9359 73.9041 36.3395C73.9098 35.9418 73.8368 35.5469 73.6896 35.1784C73.5424 34.8099 73.3239 34.4754 73.0472 34.1947C72.7705 33.9141 72.4412 33.693 72.0789 33.5448C71.7166 33.3965 71.3287 33.324 70.9384 33.3316ZM70.9384 38.1655C70.5797 38.1911 70.2218 38.1061 69.9111 37.9216C69.6004 37.7371 69.3514 37.4617 69.1964 37.1311C69.0414 36.8005 68.9876 36.4301 69.042 36.0679C69.0964 35.7057 69.2564 35.3686 69.5013 35.1003C69.7462 34.832 70.0646 34.6451 70.4152 34.5637C70.7658 34.4822 71.1323 34.5102 71.467 34.6438C71.8018 34.7775 72.0894 35.0107 72.2924 35.3131C72.4954 35.6155 72.6044 35.9732 72.6053 36.3395C72.6165 36.5717 72.5819 36.8038 72.5037 37.0221C72.4255 37.2404 72.3051 37.4406 72.1497 37.6107C71.9944 37.781 71.8071 37.9177 71.5991 38.013C71.391 38.1083 71.1664 38.1601 70.9384 38.1655ZM64.4652 33.3316C63.8799 33.333 63.3083 33.5112 62.8225 33.8437C62.3367 34.1761 61.9585 34.6479 61.7359 35.1994C61.5132 35.7508 61.456 36.3572 61.5715 36.9418C61.687 37.5263 61.97 38.0629 62.3848 38.4835C62.7996 38.9042 63.3275 39.1901 63.9017 39.305C64.4759 39.42 65.0707 39.3589 65.6108 39.1294C66.1509 38.8999 66.6121 38.5123 66.9361 38.0158C67.26 37.5192 67.4322 36.9359 67.4309 36.3395C67.4365 35.9418 67.3636 35.5469 67.2164 35.1784C67.0691 34.8099 66.8507 34.4754 66.574 34.1947C66.2973 33.9141 65.9679 33.693 65.6057 33.5448C65.2433 33.3965 64.8555 33.324 64.4652 33.3316ZM64.4652 38.1655C64.1065 38.1911 63.7486 38.1061 63.4379 37.9216C63.1272 37.7371 62.8782 37.4617 62.7232 37.1311C62.5682 36.8005 62.5144 36.4301 62.5688 36.0679C62.6232 35.7057 62.7832 35.3686 63.0281 35.1003C63.273 34.832 63.5914 34.6451 63.942 34.5637C64.2926 34.4822 64.6591 34.5102 64.9938 34.6438C65.3286 34.7775 65.6162 35.0107 65.8192 35.3131C66.0222 35.6155 66.1312 35.9732 66.1321 36.3395C66.1433 36.5717 66.1087 36.8038 66.0304 37.0221C65.9522 37.2404 65.8319 37.4406 65.6765 37.6107C65.5212 37.781 65.3339 37.9177 65.1259 38.013C64.9178 38.1083 64.6932 38.1601 64.4652 38.1655ZM56.7695 34.2588V35.5327H59.77C59.7229 36.1327 59.4782 36.6989 59.0754 37.1393C58.7745 37.4518 58.4124 37.6964 58.0128 37.8573C57.6132 38.0182 57.1849 38.0919 56.7556 38.0735C55.8714 38.0735 55.0234 37.7156 54.3982 37.0785C53.773 36.4414 53.4218 35.5773 53.4218 34.6763C53.4218 33.7754 53.773 32.9113 54.3982 32.2742C55.0234 31.6371 55.8714 31.2792 56.7556 31.2792C57.6033 31.2664 58.4218 31.5944 59.0338 32.1922L59.9159 31.2933C59.5019 30.8761 59.0104 30.5473 58.4701 30.3261C57.9298 30.105 57.3517 29.9959 56.7695 30.0052C56.1521 29.9808 55.5361 30.0836 54.9586 30.3074C54.381 30.5313 53.8538 30.8718 53.4084 31.3082C52.9631 31.7447 52.6088 32.2683 52.3668 32.8477C52.1247 33.4271 52 34.0502 52 34.6799C52 35.3095 52.1247 35.9328 52.3668 36.5121C52.6088 37.0914 52.9631 37.6151 53.4084 38.0515C53.8538 38.488 54.381 38.8285 54.9586 39.0524C55.5361 39.2762 56.1521 39.379 56.7695 39.3545C57.3637 39.3787 57.9561 39.2745 58.5079 39.0489C59.0598 38.8232 59.5585 38.4812 59.9714 38.0452C60.7008 37.2287 61.0894 36.155 61.0549 35.0514C61.0574 34.7859 61.0365 34.5206 60.9924 34.2588H56.7695ZM88.2396 35.2496C88.0584 34.7066 87.7198 34.2325 87.2684 33.89C86.8169 33.5474 86.274 33.3527 85.7114 33.3316C85.3317 33.3309 84.9555 33.4095 84.6065 33.5628C84.2575 33.7159 83.9432 33.9405 83.6827 34.2224C83.4223 34.5043 83.2214 34.8376 83.093 35.2018C82.9639 35.5659 82.9095 35.9532 82.9332 36.3395C82.9274 36.9856 83.1265 37.6163 83.5016 38.1374C83.8761 38.6585 84.4062 39.042 85.0128 39.2308C85.6194 39.4195 86.2694 39.4032 86.8661 39.1845C87.4623 38.9657 87.9739 38.5561 88.3229 38.0169L87.3158 37.3091C87.1659 37.5642 86.9529 37.7747 86.6982 37.92C86.4436 38.0652 86.1559 38.1401 85.8642 38.1372C85.5632 38.1499 85.2657 38.0695 85.0099 37.9065C84.7547 37.7436 84.5538 37.5057 84.4334 37.2242L88.3854 35.561L88.2396 35.2496ZM84.2112 36.2546C84.1973 36.0348 84.2262 35.8143 84.2968 35.6061C84.3675 35.3978 84.478 35.206 84.6221 35.0419C84.7668 34.8778 84.9416 34.7447 85.1367 34.6503C85.3323 34.556 85.5441 34.5022 85.76 34.4923C85.984 34.4784 86.2069 34.5321 86.4008 34.6467C86.5946 34.7613 86.7509 34.9316 86.8505 35.1364L84.2112 36.2546ZM81.0024 39.1705H82.3012V30.3237H81.0024V39.1705ZM78.8771 34.004H78.8285C78.6344 33.7789 78.395 33.599 78.1265 33.4769C77.858 33.3547 77.5667 33.2931 77.2727 33.2962C76.5136 33.3337 75.7979 33.6674 75.2737 34.228C74.7495 34.7887 74.4572 35.5333 74.4572 36.3077C74.4572 37.0821 74.7495 37.8267 75.2737 38.3873C75.7979 38.948 76.5136 39.2816 77.2727 39.3191C77.5671 39.3251 77.8593 39.2649 78.1282 39.1425C78.3972 39.0202 78.6363 38.8388 78.8285 38.6114H78.8771V39.0431C78.8771 40.1967 78.2728 40.8124 77.3005 40.8124C76.9756 40.8052 76.6603 40.6997 76.3944 40.5095C76.1285 40.3192 75.9241 40.0527 75.8072 39.7438L74.682 40.2179C74.89 40.7503 75.2517 41.2059 75.7192 41.5244C76.1867 41.8428 76.7381 42.0092 77.3005 42.0015C78.8215 42.0015 80.0787 41.0885 80.0787 38.8662V33.5086H78.8771V34.004ZM77.3838 38.1655C76.9287 38.1366 76.5016 37.932 76.1894 37.5934C75.8771 37.2548 75.7033 36.8077 75.7033 36.3431C75.7033 35.8785 75.8771 35.4313 76.1894 35.0927C76.5016 34.7541 76.9287 34.5496 77.3838 34.5206C77.6062 34.5304 77.8244 34.5857 78.0255 34.6832C78.2265 34.7807 78.4062 34.9183 78.5539 35.088C78.7017 35.2577 78.8145 35.456 78.8855 35.671C78.9565 35.886 78.9843 36.1133 78.9674 36.3395C78.9863 36.5665 78.9599 36.795 78.8897 37.0113C78.8195 37.2276 78.707 37.4271 78.5589 37.5978C78.4109 37.7685 78.2305 37.9068 78.0285 38.0044C77.8265 38.1019 77.6072 38.1568 77.3838 38.1655ZM94.3238 30.3237H91.2122V39.1705H92.5111V35.8158H94.3238C94.6943 35.8429 95.0658 35.792 95.4154 35.6663C95.7656 35.5405 96.0868 35.3427 96.3583 35.0851C96.6297 34.8274 96.8468 34.5155 96.995 34.1688C97.1426 33.822 97.2195 33.4479 97.2195 33.0698C97.2195 32.6916 97.1426 32.3175 96.995 31.9708C96.8468 31.624 96.6297 31.3121 96.3583 31.0545C96.0868 30.7969 95.7656 30.599 95.4154 30.4733C95.0658 30.3476 94.6943 30.2967 94.3238 30.3237ZM94.3238 34.5702H92.5111V31.5552H94.3516C94.5467 31.5552 94.74 31.5944 94.9206 31.6705C95.1006 31.7466 95.2644 31.8582 95.4027 31.9988C95.5405 32.1394 95.6504 32.3064 95.7251 32.4902C95.7998 32.674 95.838 32.8709 95.838 33.0698C95.838 33.2687 95.7998 33.4656 95.7251 33.6494C95.6504 33.8331 95.5405 34.0001 95.4027 34.1408C95.2644 34.2814 95.1006 34.3929 94.9206 34.4691C94.74 34.5452 94.5467 34.5843 94.3516 34.5843L94.3238 34.5702ZM102.339 33.3033C101.866 33.2736 101.395 33.3858 100.984 33.6261C100.572 33.8663 100.24 34.2241 100.026 34.6551L101.172 35.1434C101.288 34.9307 101.462 34.7567 101.673 34.6424C101.883 34.5281 102.122 34.4785 102.36 34.4994C102.525 34.4798 102.692 34.4939 102.851 34.5407C103.011 34.5876 103.16 34.6663 103.289 34.7724C103.418 34.8785 103.525 35.0097 103.604 35.1585C103.683 35.3072 103.733 35.4705 103.749 35.6389V35.7238C103.331 35.5001 102.866 35.3835 102.395 35.3841C101.158 35.3841 99.8941 36.0918 99.8941 37.3799C99.9063 37.6537 99.9723 37.9222 100.089 38.1694C100.204 38.4167 100.368 38.6377 100.57 38.8192C100.771 39.0007 101.007 39.1392 101.261 39.2263C101.516 39.3134 101.786 39.3474 102.054 39.3262C102.38 39.3446 102.705 39.2743 102.995 39.1226C103.286 38.9708 103.532 38.7431 103.707 38.4627H103.749V39.1705H104.999V35.7663C104.999 34.2163 103.846 33.3175 102.367 33.3175L102.339 33.3033ZM102.179 38.1513C101.756 38.1513 101.165 37.9319 101.165 37.4011C101.165 36.6934 101.901 36.4528 102.554 36.4528C102.967 36.4424 103.374 36.5451 103.735 36.75C103.692 37.1344 103.513 37.4896 103.231 37.7499C102.951 38.0101 102.587 38.1578 102.207 38.1655L102.179 38.1513ZM109.555 33.5086L108.069 37.3445H108.027L106.485 33.5086H105.096L107.409 38.8732L106.09 41.8528H107.444L111 33.5086H109.555ZM97.8869 39.1705H99.1787V30.3237H97.8869V39.1705Z" fill="#21965c"/>
  <path fill-rule="evenodd" clip-rule="evenodd" d="M35.4129 32.6266C35.2609 32.7159 35.0672 32.6871 34.9476 32.5576L30.977 28.2561C30.8444 28.1124 30.8444 27.891 30.977 27.7474L34.9459 23.4477C35.0655 23.3182 35.2591 23.2894 35.4112 23.3786L38.3315 25.0923C40.5541 26.3965 40.5541 29.6098 38.3315 30.914L35.4129 32.6266ZM32.7647 34.1806C32.9711 34.0595 33.0127 33.7787 32.8504 33.6028L29.4867 29.9588C29.3382 29.798 29.0841 29.798 28.9356 29.9588L18.8172 40.9204C18.6294 41.1239 18.7216 41.4503 18.9966 41.4823C19.6833 41.5621 20.4093 41.4307 21.0831 41.0353L32.7647 34.1806ZM16.9001 39.6801C16.7367 39.8571 16.4501 39.8361 16.3436 39.6201C16.1251 39.1772 16 38.6726 16 38.1245V17.8818C16 17.3328 16.1255 16.8275 16.3446 16.3841C16.4512 16.1683 16.7377 16.1474 16.901 16.3243L27.4454 27.7474C27.578 27.891 27.578 28.1124 27.4454 28.2561L16.9001 39.6801ZM18.9992 14.5237C18.724 14.5555 18.6317 14.882 18.8196 15.0855L28.9356 26.0446C29.0841 26.2054 29.3382 26.2054 29.4867 26.0446L32.8487 22.4024C33.011 22.2266 32.9693 21.9458 32.7629 21.8247L21.0831 14.971C20.4102 14.5761 19.6851 14.4445 18.9992 14.5237Z" fill="#21965c"/>
</svg>
