<svg width="132" height="56" viewBox="0 0 132 56" fill="none" xmlns="http://www.w3.org/2000/svg">
  <path d="M0 8.00171C0 3.58343 3.58172 0.00170898 8 0.00170898H124C128.418 0.00170898 132 3.58343 132 8.00171V48.0017C132 52.42 128.418 56.0017 124 56.0017H8C3.58172 56.0017 0 52.42 0 48.0017V8.00171Z" fill="white"/>
  <path d="M58.45 16.8367V23.2417H59.62V25.4567C59.62 25.5434 59.5917 25.6134 59.535 25.6667C59.4783 25.72 59.4033 25.7467 59.31 25.7467H58.735V24.0017H52.96V25.4567C52.96 25.5434 52.93 25.6134 52.87 25.6667C52.8133 25.72 52.74 25.7467 52.65 25.7467H52.07V23.2417H52.8C52.9033 23.1917 53.0067 23.1117 53.11 23.0017C53.2133 22.8884 53.3117 22.7284 53.405 22.5217C53.5017 22.3117 53.5917 22.0484 53.675 21.7317C53.7583 21.415 53.8333 21.0284 53.9 20.5717C53.97 20.1117 54.03 19.575 54.08 18.9617C54.13 18.3484 54.1683 17.64 54.195 16.8367H58.45ZM55.105 17.6017C55.065 18.4217 55.0067 19.14 54.93 19.7567C54.8567 20.3734 54.77 20.9084 54.67 21.3617C54.57 21.8117 54.4583 22.19 54.335 22.4967C54.2117 22.8 54.08 23.0484 53.94 23.2417H57.475V17.6017H55.105ZM62.3986 18.8567C62.7686 18.8567 63.1019 18.9184 63.3986 19.0417C63.6953 19.165 63.9486 19.34 64.1586 19.5667C64.3686 19.7934 64.5286 20.0684 64.6386 20.3917C64.7519 20.7117 64.8086 21.07 64.8086 21.4667C64.8086 21.8667 64.7519 22.2267 64.6386 22.5467C64.5286 22.8667 64.3686 23.14 64.1586 23.3667C63.9486 23.5934 63.6953 23.7684 63.3986 23.8917C63.1019 24.0117 62.7686 24.0717 62.3986 24.0717C62.0253 24.0717 61.6886 24.0117 61.3886 23.8917C61.0919 23.7684 60.8386 23.5934 60.6286 23.3667C60.4186 23.14 60.2569 22.8667 60.1436 22.5467C60.0336 22.2267 59.9786 21.8667 59.9786 21.4667C59.9786 21.07 60.0336 20.7117 60.1436 20.3917C60.2569 20.0684 60.4186 19.7934 60.6286 19.5667C60.8386 19.34 61.0919 19.165 61.3886 19.0417C61.6886 18.9184 62.0253 18.8567 62.3986 18.8567ZM62.3986 23.3767C62.8986 23.3767 63.2719 23.21 63.5186 22.8767C63.7653 22.54 63.8886 22.0717 63.8886 21.4717C63.8886 20.8684 63.7653 20.3984 63.5186 20.0617C63.2719 19.725 62.8986 19.5567 62.3986 19.5567C62.1453 19.5567 61.9236 19.6 61.7336 19.6867C61.5469 19.7734 61.3903 19.8984 61.2636 20.0617C61.1403 20.225 61.0469 20.4267 60.9836 20.6667C60.9236 20.9034 60.8936 21.1717 60.8936 21.4717C60.8936 22.0717 61.0169 22.54 61.2636 22.8767C61.5136 23.21 61.8919 23.3767 62.3986 23.3767ZM69.4624 19.8367C69.4358 19.8734 69.4091 19.9017 69.3824 19.9217C69.3558 19.9417 69.3191 19.9517 69.2724 19.9517C69.2224 19.9517 69.1674 19.9317 69.1074 19.8917C69.0474 19.8484 68.9724 19.8017 68.8824 19.7517C68.7958 19.7017 68.6874 19.6567 68.5574 19.6167C68.4308 19.5734 68.2741 19.5517 68.0874 19.5517C67.8374 19.5517 67.6174 19.5967 67.4274 19.6867C67.2374 19.7734 67.0774 19.9 66.9474 20.0667C66.8208 20.2334 66.7241 20.435 66.6574 20.6717C66.5941 20.9084 66.5624 21.1734 66.5624 21.4667C66.5624 21.7734 66.5974 22.0467 66.6674 22.2867C66.7374 22.5234 66.8358 22.7234 66.9624 22.8867C67.0924 23.0467 67.2474 23.17 67.4274 23.2567C67.6108 23.34 67.8158 23.3817 68.0424 23.3817C68.2591 23.3817 68.4374 23.3567 68.5774 23.3067C68.7174 23.2534 68.8324 23.195 68.9224 23.1317C69.0158 23.0684 69.0924 23.0117 69.1524 22.9617C69.2158 22.9084 69.2774 22.8817 69.3374 22.8817C69.4108 22.8817 69.4674 22.91 69.5074 22.9667L69.7574 23.2917C69.6474 23.4284 69.5224 23.545 69.3824 23.6417C69.2424 23.7384 69.0908 23.82 68.9274 23.8867C68.7674 23.95 68.5991 23.9967 68.4224 24.0267C68.2458 24.0567 68.0658 24.0717 67.8824 24.0717C67.5658 24.0717 67.2708 24.0134 66.9974 23.8967C66.7274 23.78 66.4924 23.6117 66.2924 23.3917C66.0924 23.1684 65.9358 22.895 65.8224 22.5717C65.7091 22.2484 65.6524 21.88 65.6524 21.4667C65.6524 21.09 65.7041 20.7417 65.8074 20.4217C65.9141 20.1017 66.0674 19.8267 66.2674 19.5967C66.4708 19.3634 66.7191 19.1817 67.0124 19.0517C67.3091 18.9217 67.6491 18.8567 68.0324 18.8567C68.3891 18.8567 68.7024 18.915 68.9724 19.0317C69.2458 19.145 69.4874 19.3067 69.6974 19.5167L69.4624 19.8367ZM70.1428 18.9367H74.9228V19.6167H72.9778V24.0017H72.0878V19.6167H70.1428V18.9367ZM77.3164 25.4967C77.2864 25.5634 77.2481 25.6167 77.2014 25.6567C77.1581 25.6967 77.0897 25.7167 76.9964 25.7167H76.3364L77.2614 23.7067L75.1714 18.9367H75.9414C76.0181 18.9367 76.0781 18.9567 76.1214 18.9967C76.1681 19.0334 76.1997 19.075 76.2164 19.1217L77.5714 22.3117C77.5981 22.3884 77.6231 22.4634 77.6464 22.5367C77.6697 22.6067 77.6897 22.68 77.7064 22.7567C77.7497 22.6067 77.7997 22.4567 77.8564 22.3067L79.1714 19.1217C79.1914 19.0684 79.2247 19.025 79.2714 18.9917C79.3214 18.955 79.3764 18.9367 79.4364 18.9367H80.1414L77.3164 25.4967ZM85.1477 18.9367V24.0017H84.2527V19.6167H81.8227V24.0017H80.9277V18.9367H85.1477ZM90.7824 18.9367V24.0017H89.8874V21.6317H87.4574V24.0017H86.5624V18.9367H87.4574V20.9567H89.8874V18.9367H90.7824ZM94.3322 18.8567C94.7022 18.8567 95.0355 18.9184 95.3322 19.0417C95.6289 19.165 95.8822 19.34 96.0922 19.5667C96.3022 19.7934 96.4622 20.0684 96.5722 20.3917C96.6855 20.7117 96.7422 21.07 96.7422 21.4667C96.7422 21.8667 96.6855 22.2267 96.5722 22.5467C96.4622 22.8667 96.3022 23.14 96.0922 23.3667C95.8822 23.5934 95.6289 23.7684 95.3322 23.8917C95.0355 24.0117 94.7022 24.0717 94.3322 24.0717C93.9589 24.0717 93.6222 24.0117 93.3222 23.8917C93.0255 23.7684 92.7722 23.5934 92.5622 23.3667C92.3522 23.14 92.1905 22.8667 92.0772 22.5467C91.9672 22.2267 91.9122 21.8667 91.9122 21.4667C91.9122 21.07 91.9672 20.7117 92.0772 20.3917C92.1905 20.0684 92.3522 19.7934 92.5622 19.5667C92.7722 19.34 93.0255 19.165 93.3222 19.0417C93.6222 18.9184 93.9589 18.8567 94.3322 18.8567ZM94.3322 23.3767C94.8322 23.3767 95.2055 23.21 95.4522 22.8767C95.6989 22.54 95.8222 22.0717 95.8222 21.4717C95.8222 20.8684 95.6989 20.3984 95.4522 20.0617C95.2055 19.725 94.8322 19.5567 94.3322 19.5567C94.0789 19.5567 93.8572 19.6 93.6672 19.6867C93.4805 19.7734 93.3239 19.8984 93.1972 20.0617C93.0739 20.225 92.9805 20.4267 92.9172 20.6667C92.8572 20.9034 92.8272 21.1717 92.8272 21.4717C92.8272 22.0717 92.9505 22.54 93.1972 22.8767C93.4472 23.21 93.8255 23.3767 94.3322 23.3767ZM100.43 18.9367H102.285C102.598 18.9367 102.866 18.9684 103.09 19.0317C103.313 19.095 103.496 19.1817 103.64 19.2917C103.783 19.3984 103.888 19.525 103.955 19.6717C104.021 19.8184 104.055 19.975 104.055 20.1417C104.055 20.2517 104.04 20.3667 104.01 20.4867C103.98 20.6067 103.926 20.7217 103.85 20.8317C103.776 20.9417 103.675 21.0417 103.545 21.1317C103.418 21.2184 103.258 21.2867 103.065 21.3367C103.448 21.4034 103.745 21.5384 103.955 21.7417C104.168 21.9417 104.275 22.2067 104.275 22.5367C104.275 22.7834 104.225 22.9984 104.125 23.1817C104.028 23.3617 103.893 23.5134 103.72 23.6367C103.55 23.76 103.35 23.8517 103.12 23.9117C102.89 23.9717 102.643 24.0017 102.38 24.0017H100.43V18.9367ZM101.285 21.6917V23.3767H102.375C102.708 23.3767 102.971 23.3 103.165 23.1467C103.358 22.99 103.455 22.7767 103.455 22.5067C103.455 22.3867 103.436 22.2784 103.4 22.1817C103.363 22.0817 103.303 21.995 103.22 21.9217C103.136 21.8484 103.025 21.7917 102.885 21.7517C102.748 21.7117 102.58 21.6917 102.38 21.6917H101.285ZM101.285 21.1267H102.26C102.406 21.1267 102.541 21.1067 102.665 21.0667C102.791 21.0234 102.9 20.965 102.99 20.8917C103.08 20.815 103.15 20.725 103.2 20.6217C103.25 20.515 103.275 20.3984 103.275 20.2717C103.275 20.1784 103.258 20.0884 103.225 20.0017C103.191 19.9117 103.135 19.8334 103.055 19.7667C102.975 19.6967 102.87 19.6417 102.74 19.6017C102.61 19.5584 102.45 19.5367 102.26 19.5367H101.285V21.1267Z" fill="#0B1F33"/>
  <path fill-rule="evenodd" clip-rule="evenodd" d="M80.8634 39.0785C79.6911 39.0785 78.8332 38.4957 78.7345 37.6081L77.3703 37.608C77.4565 39.2271 78.7898 40.2512 80.7646 40.2512C82.8752 40.2512 84.2024 39.2024 84.2024 37.5278C84.2024 36.2185 83.4431 35.4808 81.6161 35.0464L80.635 34.8043C79.4873 34.5192 79.0181 34.1469 79.0181 33.514C79.0181 32.72 79.7527 32.1745 80.8262 32.1745C81.8997 32.1745 82.6343 32.7137 82.7149 33.607H84.0601C84.0167 32.0626 82.7268 31.0017 80.8451 31.0017C78.9439 31.0017 77.6049 32.0626 77.6049 33.607C77.6049 34.8543 78.364 35.623 79.9992 36.02L81.1533 36.2994C82.3073 36.5846 82.7947 37.0006 82.7947 37.6953C82.7947 38.4957 81.9866 39.0785 80.8634 39.0785ZM54.2528 37.6829H57.647L58.4614 40.1022H59.9236L56.7086 31.1512H55.215L52 40.1022H53.4377L54.2528 37.6829ZM57.2948 36.5664H54.6043L55.9314 32.64H55.9685L57.2948 36.5664ZM64.1563 40.171C65.7859 40.171 66.8656 38.8681 66.8656 36.8401C66.8656 34.8177 65.7795 33.5084 64.1318 33.5084C63.7157 33.4949 63.3036 33.5951 62.9396 33.7982C62.5756 34.0014 62.2732 34.3 62.0646 34.6621H62.0401V33.5767H60.7502V42.2617H62.0828V39.0292H62.1136C62.3131 39.3932 62.6104 39.6933 62.9717 39.8952C63.333 40.0972 63.7435 40.1927 64.1563 40.171ZM63.7803 34.6502C64.8166 34.6502 65.4959 35.5188 65.4959 36.8401C65.4959 38.1733 64.8166 39.0356 63.7803 39.0356C62.7621 39.0356 62.0772 38.155 62.0772 36.8401C62.0772 35.5371 62.7621 34.6502 63.7803 34.6502ZM74.014 36.8404C74.014 38.8685 72.9341 40.1714 71.3046 40.1714C70.8918 40.1931 70.4813 40.0975 70.12 39.8956C69.7588 39.6937 69.4614 39.3935 69.2619 39.0296H69.231V42.2621H67.8984V33.5771H69.1883V34.6625H69.2128C69.4215 34.3003 69.7239 34.0017 70.0879 33.7986C70.4519 33.5955 70.8639 33.4953 71.28 33.5088C72.9278 33.5088 74.014 34.8181 74.014 36.8404ZM72.6442 36.8404C72.6442 35.5192 71.9649 34.6505 70.9285 34.6505C69.9103 34.6505 69.2255 35.5375 69.2255 36.8404C69.2255 38.1554 69.9103 39.036 70.9285 39.036C71.965 39.036 72.6442 38.1737 72.6442 36.8404ZM87.0794 32.031V33.5755H88.3138V34.6363H87.0794V38.234C87.0794 38.7929 87.3264 39.0534 87.8694 39.0534C88.0159 39.0508 88.1624 39.0405 88.3077 39.0224V40.0769C88.0637 40.1227 87.8155 40.1434 87.5673 40.1388C86.2532 40.1388 85.7408 39.6425 85.7408 38.3769V34.6363H84.7969V33.5755H85.7408V32.031H87.0794ZM92.1067 33.4958C90.2305 33.4958 89.0273 34.7861 89.0273 36.8395C89.0273 38.8984 90.2183 40.1831 92.1067 40.1831C93.9951 40.1831 95.186 38.8984 95.186 36.8395C95.186 34.7861 93.9889 33.4958 92.1067 33.4958ZM92.1067 34.5996C93.186 34.5996 93.8284 35.4309 93.8284 36.8395C93.8284 38.2536 93.186 39.0787 92.1067 39.0787C91.0267 39.0787 90.385 38.2536 90.385 36.8395C90.385 35.4373 91.0267 34.5996 92.1067 34.5996ZM96.2852 33.577H97.5564V34.6878H97.587C97.6728 34.3409 97.8751 34.0343 98.1595 33.8195C98.4439 33.6048 98.7932 33.495 99.1487 33.5087C99.302 33.5082 99.4552 33.5249 99.6053 33.5587V34.8116C99.4111 34.7521 99.2088 34.7248 99.0065 34.7307C98.8128 34.7228 98.6198 34.7571 98.4408 34.8313C98.2612 34.9054 98.1006 35.0177 97.9682 35.1603C97.8365 35.303 97.7372 35.4726 97.6765 35.6577C97.6158 35.8427 97.5956 36.0387 97.6176 36.2322V40.103H96.2852V33.577ZM102.955 40.1831C104.423 40.1831 105.571 39.3701 105.75 38.1853H104.485C104.367 38.4802 104.157 38.7289 103.887 38.8943C103.617 39.0596 103.301 39.133 102.986 39.1033C102.746 39.1122 102.507 39.0696 102.285 38.9786C102.063 38.8876 101.863 38.75 101.698 38.5752C101.532 38.4004 101.406 38.1922 101.327 37.9646C101.248 37.7369 101.218 37.495 101.239 37.2548V37.1738H105.825V36.7149C105.825 34.7362 104.695 33.4959 102.899 33.4959C101.073 33.4959 99.894 34.8235 99.894 36.8705C99.894 38.9111 101.067 40.1831 102.955 40.1831ZM104.492 36.2376H101.245C101.245 36.0195 101.288 35.8034 101.371 35.6018C101.453 35.4002 101.575 35.2172 101.729 35.0632C101.883 34.9092 102.065 34.7873 102.266 34.7046C102.467 34.6219 102.682 34.58 102.899 34.5813C103.114 34.5767 103.328 34.6167 103.527 34.699C103.726 34.7814 103.906 34.9042 104.055 35.0597C104.205 35.2152 104.321 35.4002 104.396 35.6029C104.471 35.8055 104.503 36.0217 104.492 36.2376Z" fill="#21965c"/>
  <path d="M36.5458 27.4432C36.5904 31.9849 40.7108 33.4894 40.75 33.5165C40.7184 33.6238 40.1026 35.6743 38.5913 37.7801C37.2824 39.6045 35.9322 41.4257 33.7974 41.4643C31.6921 41.4997 31.0251 40.2692 28.6292 40.2744C26.2268 40.2744 25.4804 41.4341 23.4969 41.5018C21.4307 41.5789 19.8607 39.5305 18.5518 37.7113C15.8567 33.9927 13.8014 27.1952 16.5552 22.5931C17.9305 20.3102 20.3797 18.8734 23.0356 18.8317C25.0637 18.7984 26.9732 20.131 28.2038 20.131C29.442 20.131 31.7639 18.5296 34.2065 18.7598C35.2228 18.7994 38.0897 19.1516 39.934 21.7283C39.7849 21.8137 36.5099 23.6412 36.5458 27.4432ZM32.6027 16.2988C31.5136 17.5637 29.7205 18.5556 27.9677 18.4202C27.7251 16.7031 28.6031 14.9047 29.6183 13.7795C30.7455 12.5156 32.6528 11.5727 34.2283 11.5039C34.4307 13.2658 33.6908 15.0287 32.6027 16.2988Z" fill="#21965c"/>
</svg>
