<svg xmlns="http://www.w3.org/2000/svg" xmlns:xlink="http://www.w3.org/1999/xlink" viewBox="0 0 1920 2000"><defs><style>.cls-1,.cls-3{fill:none;}.cls-2{clip-path:url(#clip-path);}.cls-3{stroke:#c3e2c1;stroke-miterlimit:10;stroke-width:2px;opacity:0.5;}.cls-4{fill:#fff;}</style><clipPath id="clip-path"><rect class="cls-1" width="1920" height="2000"/></clipPath></defs><title>05_back</title><g id="Layer_5" data-name="Layer 5"><g class="cls-2"><path class="cls-3" d="M1943.89,1280.67s-308.67-245.33-176.67-337.55c70.24-49.07,260.92,50.38,260.92,50.38"/><rect class="cls-4" width="1920" height="2000"/><path class="cls-3" d="M-47,121.73s145.33,14,270-38,217.33-154,217.33-154"/><path class="cls-3" d="M-109.75,401.06S46,411.24,229.83,351.34c132-43,192.42-122.28,229-227.9,54.71-158,73-293.6,250-382.1"/><path class="cls-3" d="M-38.4,691.66S145,734.38,152.83,835.83-83.73,1014.72-83.73,1014.72"/><path class="cls-3" d="M-406.67,2055.47s72-22.5,34.5-246,58.5-382.48,214.49-411,239.3,192.24,400.88,345.86C393,1886.81,755.77,1898.85,755.77,2043.47"/><path class="cls-3" d="M-141.28,2027.91S-201,1844.6-73.45,1808.26,423.2,2011.5,423.2,2011.5"/><path class="cls-3" d="M2032.5,926.54S1638,662.55,1545,841s255,376.48,259.49,468c4.26,86.66-215.19,239-216.38,239.92-59.9,46.71-115.09,206,63.16,273.34,180.13,68,430.13-12,430.13-12"/><path class="cls-3" d="M1993.5,98.58s-705,87-684,262.49,420,37.49,507,115.49,13.5,113.08,156,257.53"/><path class="cls-3" d="M-247.64,1356.38s265.2-336.17,447-347.56c264-16.54,423-136.66,301.53-277.42s-361.48-133.26-471-127.63-330-20.64-367.48-99.47"/></g></g></svg>