<!-- Generator: Adobe Illustrator 22.1.0, SVG Export Plug-In  -->
<svg version="1.1"
	 xmlns="http://www.w3.org/2000/svg" xmlns:xlink="http://www.w3.org/1999/xlink" xmlns:a="http://ns.adobe.com/AdobeSVGViewerExtensions/3.0/"
	 x="0px" y="0px" width="119.7px" height="40px" viewBox="0 0 119.7 40"
	 style="overflow:scroll;enable-background:new 0 0 119.7 40;" xml:space="preserve">
<style type="text/css">
	.st0{fill:#438A34;}
	.st1{fill:#FFFFFF;}
</style>
<defs>
</defs>
<path class="st0" d="M110.1,0H9.5C9.2,0,8.8,0,8.4,0C8.1,0,7.8,0,7.5,0c-0.7,0-1.3,0.1-2,0.2C4.9,0.3,4.2,0.5,3.6,0.8
	C3,1.1,2.5,1.5,2,2C1.5,2.5,1.1,3,0.8,3.6C0.5,4.2,0.3,4.9,0.2,5.5C0.1,6.2,0,6.9,0,7.5c0,0.3,0,0.6,0,0.9v23.1c0,0.3,0,0.6,0,0.9
	c0,0.7,0.1,1.3,0.2,2c0.1,0.7,0.3,1.3,0.6,1.9C1.1,37,1.5,37.5,2,38c0.5,0.5,1,0.9,1.6,1.2c0.6,0.3,1.2,0.5,1.9,0.6
	c0.7,0.1,1.3,0.2,2,0.2c0.3,0,0.6,0,0.9,0c0.4,0,0.7,0,1.1,0h100.6c0.4,0,0.7,0,1.1,0c0.3,0,0.6,0,0.9,0c0.7,0,1.3-0.1,2-0.2
	c0.7-0.1,1.3-0.3,1.9-0.6c0.6-0.3,1.1-0.7,1.6-1.2c0.5-0.5,0.9-1,1.2-1.6c0.3-0.6,0.5-1.2,0.6-1.9c0.1-0.7,0.2-1.3,0.2-2
	c0-0.3,0-0.6,0-0.9c0-0.4,0-0.7,0-1.1V9.5c0-0.4,0-0.7,0-1.1c0-0.3,0-0.6,0-0.9c0-0.7-0.1-1.3-0.2-2c-0.1-0.7-0.3-1.3-0.6-1.9
	c-0.6-1.2-1.6-2.2-2.8-2.8c-0.6-0.3-1.2-0.5-1.9-0.6c-0.7-0.1-1.3-0.2-2-0.2c-0.3,0-0.6,0-0.9,0C110.9,0,110.5,0,110.1,0L110.1,0z"
	/>
<path class="st1" d="M8.4,39.1c-0.3,0-0.6,0-0.9,0c-0.6,0-1.3-0.1-1.9-0.2c-0.6-0.1-1.1-0.3-1.7-0.5c-0.5-0.3-1-0.6-1.4-1
	c-0.4-0.4-0.8-0.9-1-1.4c-0.3-0.5-0.4-1.1-0.5-1.7c-0.1-0.6-0.2-1.2-0.2-1.9c0-0.2,0-0.9,0-0.9V8.4c0,0,0-0.7,0-0.9
	c0-0.6,0.1-1.3,0.2-1.9C1.1,5.1,1.3,4.5,1.6,4c0.3-0.5,0.6-1,1-1.4C3,2.2,3.5,1.9,4,1.6c0.5-0.3,1.1-0.4,1.7-0.5
	c0.6-0.1,1.2-0.2,1.9-0.2l0.9,0h102.8l0.9,0c0.6,0,1.2,0.1,1.9,0.2c0.6,0.1,1.1,0.3,1.7,0.5c1,0.5,1.9,1.4,2.4,2.4
	c0.3,0.5,0.4,1.1,0.5,1.6c0.1,0.6,0.2,1.3,0.2,1.9c0,0.3,0,0.6,0,0.9c0,0.4,0,0.7,0,1.1v20.9c0,0.4,0,0.7,0,1.1c0,0.3,0,0.6,0,0.9
	c0,0.6-0.1,1.2-0.2,1.9c-0.1,0.6-0.3,1.1-0.5,1.7c-0.3,0.5-0.6,1-1,1.4c-0.4,0.4-0.9,0.8-1.4,1c-0.5,0.3-1.1,0.5-1.7,0.5
	c-0.6,0.1-1.2,0.2-1.9,0.2c-0.3,0-0.6,0-0.9,0l-1.1,0L8.4,39.1z"/>
<path id="_Path__1_" class="st0" d="M25,19.9c0-1.8,0.9-3.4,2.5-4.3c-1-1.4-2.5-2.2-4.2-2.2c-1.7-0.2-3.4,1-4.3,1
	c-0.9,0-2.3-1-3.8-1c-1.9,0.1-3.7,1.1-4.7,2.8c-2,3.5-0.5,8.6,1.4,11.4c1,1.4,2.1,2.9,3.6,2.9c1.4-0.1,2-0.9,3.7-0.9
	c1.7,0,2.2,0.9,3.7,0.9c1.5,0,2.5-1.4,3.5-2.8c0.7-1,1.2-2.1,1.6-3.2C26.2,23.7,25,21.9,25,19.9z"/>
<path id="_Path_2_1_" class="st0" d="M22.2,11.5c0.8-1,1.3-2.3,1.2-3.6C22,8,20.8,8.6,20,9.6c-0.8,1-1.3,2.2-1.2,3.5
	C20.1,13.1,21.3,12.5,22.2,11.5z"/>
<path class="st0" d="M42.3,27.1h-4.7l-1.1,3.4h-2l4.5-12.4H41l4.5,12.4h-2L42.3,27.1z M38.1,25.6h3.8L40,20.1h-0.1L38.1,25.6z"/>
<path class="st0" d="M55.2,26c0,2.8-1.5,4.6-3.8,4.6c-1.2,0.1-2.3-0.6-2.8-1.6h0v4.5h-1.9v-12h1.8v1.5h0c0.6-1,1.7-1.6,2.9-1.6
	C53.6,21.3,55.2,23.2,55.2,26z M53.2,26c0-1.8-0.9-3-2.4-3c-1.4,0-2.4,1.2-2.4,3c0,1.8,1,3,2.4,3C52.3,29,53.2,27.8,53.2,26L53.2,26
	z"/>
<path class="st0" d="M65.1,26c0,2.8-1.5,4.6-3.8,4.6c-1.2,0.1-2.3-0.6-2.8-1.6h0v4.5h-1.9v-12h1.8v1.5h0c0.6-1,1.7-1.6,2.9-1.6
	C63.6,21.3,65.1,23.2,65.1,26z M63.2,26c0-1.8-0.9-3-2.4-3c-1.4,0-2.4,1.2-2.4,3c0,1.8,1,3,2.4,3C62.3,29,63.2,27.8,63.2,26z"/>
<path class="st0" d="M71.7,27c0.1,1.2,1.3,2,3,2c1.6,0,2.7-0.8,2.7-1.9c0-1-0.7-1.5-2.3-1.9l-1.6-0.4c-2.3-0.6-3.3-1.6-3.3-3.3
	c0-2.1,1.9-3.6,4.5-3.6c2.6,0,4.4,1.5,4.5,3.6h-1.9c-0.1-1.2-1.1-2-2.6-2s-2.5,0.8-2.5,1.9c0,0.9,0.7,1.4,2.3,1.8l1.4,0.3
	c2.5,0.6,3.6,1.6,3.6,3.4c0,2.3-1.8,3.8-4.8,3.8c-2.8,0-4.6-1.4-4.7-3.7L71.7,27z"/>
<path class="st0" d="M83.3,19.3v2.1h1.7v1.5h-1.7v5c0,0.8,0.3,1.1,1.1,1.1c0.2,0,0.4,0,0.6,0v1.5c-0.3,0.1-0.7,0.1-1,0.1
	c-1.8,0-2.5-0.7-2.5-2.4v-5.2h-1.3v-1.5h1.3v-2.1H83.3z"/>
<path class="st0" d="M86.1,26c0-2.8,1.7-4.6,4.3-4.6c2.6,0,4.3,1.8,4.3,4.6c0,2.9-1.7,4.6-4.3,4.6C87.7,30.6,86.1,28.8,86.1,26z
	 M92.8,26c0-2-0.9-3.1-2.4-3.1S88,24,88,26c0,2,0.9,3.1,2.4,3.1S92.8,27.9,92.8,26L92.8,26z"/>
<path class="st0" d="M96.2,21.4H98V23h0c0.2-1,1.2-1.7,2.2-1.6c0.2,0,0.4,0,0.6,0.1v1.7c-0.3-0.1-0.6-0.1-0.8-0.1
	c-1,0-1.9,0.8-1.9,1.8c0,0.1,0,0.2,0,0.3v5.4h-1.9L96.2,21.4z"/>
<path class="st0" d="M109.4,27.8c-0.3,1.6-1.9,2.8-3.9,2.8c-2.6,0-4.3-1.8-4.3-4.6c0-2.8,1.6-4.7,4.2-4.7c2.5,0,4.1,1.7,4.1,4.5v0.6
	h-6.4v0.1c-0.1,1.3,0.8,2.4,2.1,2.6c0.1,0,0.2,0,0.3,0c0.9,0.1,1.8-0.4,2.1-1.3L109.4,27.8z M103.1,25.1h4.5
	c0.1-1.2-0.9-2.2-2.1-2.3c-0.1,0-0.1,0-0.2,0C104.1,22.8,103.1,23.8,103.1,25.1C103.1,25.1,103.1,25.1,103.1,25.1z"/>
<path class="st0" d="M36.7,11.3h0.8c0.5,0.1,1-0.3,1.1-0.9c0,0,0-0.1,0-0.1c0-0.6-0.4-0.9-1.1-0.9c-0.6-0.1-1.1,0.3-1.2,0.9
	c0,0,0,0,0,0h-0.9c0.1-1,0.9-1.8,2-1.8c0,0,0.1,0,0.1,0c1.2,0,2,0.7,2,1.6c0,0.7-0.4,1.2-1.1,1.4v0.1c0.8,0,1.4,0.7,1.3,1.4
	c-0.1,1.1-1.1,1.9-2.2,1.8c0,0,0,0,0,0c-1.1,0.1-2.1-0.6-2.2-1.7c0,0,0,0,0-0.1h0.9c0.1,0.6,0.6,0.9,1.4,0.9s1.3-0.4,1.3-1
	c0-0.6-0.5-1-1.3-1h-0.8V11.3z"/>
<path class="st0" d="M40.8,13.4c0-0.8,0.6-1.3,1.7-1.3l1.2-0.1v-0.4c0-0.5-0.3-0.7-0.9-0.7c-0.5,0-0.8,0.2-0.9,0.5H41
	c0.1-0.8,0.8-1.3,1.8-1.3c1.1,0,1.8,0.6,1.8,1.5v3.1h-0.9v-0.6h-0.1c-0.3,0.5-0.8,0.7-1.4,0.7c-0.7,0.1-1.4-0.5-1.5-1.2
	C40.8,13.5,40.8,13.5,40.8,13.4z M43.7,13v-0.4l-1.1,0.1c-0.6,0-0.9,0.3-0.9,0.6c0,0.4,0.4,0.6,0.8,0.6C43.1,14.1,43.7,13.7,43.7,13
	C43.7,13.1,43.7,13.1,43.7,13z"/>
<path class="st0" d="M47,10.9v3.8h-0.9v-4.5h3v0.7L47,10.9z"/>
<path class="st0" d="M54.4,12.4c0,1.4-0.7,2.3-1.9,2.3c-0.6,0-1.1-0.3-1.4-0.8h-0.1v2.2h-0.9v-6h0.9v0.7h0.1
	c0.3-0.5,0.8-0.8,1.4-0.8C53.7,10.1,54.4,11,54.4,12.4z M53.5,12.4c0-1-0.5-1.5-1.2-1.5c-0.7,0-1.2,0.6-1.2,1.5
	c0,0.9,0.5,1.5,1.2,1.5C53.1,14,53.5,13.4,53.5,12.4z"/>
<path class="st0" d="M55.6,16.3v-0.8c0.1,0,0.2,0,0.3,0c0.4,0,0.7-0.2,0.8-0.6l0.1-0.2l-1.6-4.5h1l1.1,3.6h0.1l1.1-3.6h0.9l-1.7,4.7
	c-0.4,1.1-0.8,1.4-1.7,1.4C55.9,16.3,55.7,16.3,55.6,16.3z"/>
<path class="st0" d="M60.1,13.4H61c0.1,0.4,0.5,0.6,1,0.6c0.6,0,1-0.3,1-0.7c0-0.4-0.3-0.6-1-0.6h-0.7V12h0.7c0.5,0,0.8-0.2,0.8-0.6
	c0-0.3-0.3-0.6-0.8-0.6c-0.5,0-0.9,0.2-0.9,0.6h-0.9c0.1-0.8,0.9-1.4,1.8-1.3c1.1,0,1.7,0.5,1.7,1.2c0,0.4-0.3,0.8-0.7,0.9v0.1
	c0.5,0.1,0.9,0.5,0.9,1c0,0.9-0.7,1.4-1.8,1.4C61,14.8,60.2,14.3,60.1,13.4z"/>
<path class="st0" d="M65.1,14.7v-4.5h0.9v3.1H66l2.1-3.1H69v4.5h-0.9v-3.1H68l-2.1,3.1L65.1,14.7z"/>
<path class="st0" d="M73.8,10.9h-1.4v3.8h-0.9v-3.8h-1.4v-0.7h3.7V10.9z"/>
<path class="st0" d="M78.6,13.5c-0.2,0.8-1.1,1.4-2,1.3c-1.1,0-2.1-0.9-2.1-2c0-0.1,0-0.2,0-0.3c-0.2-1.1,0.6-2.2,1.8-2.3
	c0.1,0,0.2,0,0.3,0c1.3,0,2,0.9,2,2.3v0.3h-3.2v0c-0.1,0.7,0.4,1.2,1.1,1.3c0,0,0.1,0,0.1,0c0.4,0.1,0.9-0.2,1.1-0.5L78.6,13.5z
	 M75.5,12h2.3c0-0.6-0.4-1.1-1-1.2c0,0-0.1,0-0.1,0C76,10.9,75.5,11.4,75.5,12C75.5,12,75.5,12,75.5,12L75.5,12z"/>
<path class="st0" d="M82.4,10.2h2c0.9,0,1.4,0.4,1.4,1.1c0,0.5-0.3,0.9-0.8,1v0.1c0.5,0,1,0.5,1,1c0,0.8-0.6,1.3-1.6,1.3h-2.1V10.2z
	 M83.3,10.9V12h0.9c0.5,0,0.8-0.2,0.8-0.6c0-0.4-0.2-0.6-0.7-0.6L83.3,10.9z M83.3,12.7V14h1.1c0.5,0,0.8-0.2,0.8-0.7
	c0-0.5-0.3-0.7-0.9-0.7L83.3,12.7z"/>
</svg>
